<?xml version="1.0" encoding="utf-8"?>
<!-- Generator: Adobe Illustrator 25.4.1, SVG Export Plug-In . SVG Version: 6.00 Build 0)  -->
<svg version="1.1" id="Layer_1" xmlns="http://www.w3.org/2000/svg" xmlns:xlink="http://www.w3.org/1999/xlink" x="0px" y="0px"
	 viewBox="0 0 2000 2000" style="enable-background:new 0 0 2000 2000;" xml:space="preserve">
<style type="text/css">
	.st0{display:none;}
	.st1{display:inline;fill:none;stroke:#000000;stroke-miterlimit:10;}
	.st2{display:none;fill:none;stroke:#000000;stroke-miterlimit:10;}
	.st3{display:inline;fill:#FFFFFF;}
	.st4{display:inline;}
	.st5{fill:#6D6E71;}
	.st6{fill:none;stroke:#000000;stroke-width:0.9071;stroke-miterlimit:10;}
	.st7{fill:none;stroke:#000000;stroke-width:0.9071;stroke-miterlimit:10;stroke-dasharray:2.7168,2.7168;}
	.st8{fill:none;stroke:#000000;stroke-miterlimit:10;}
	.st9{fill:none;stroke:#000000;stroke-miterlimit:10;stroke-dasharray:2.9809,2.9809;}
	.st10{fill:none;stroke:#000000;stroke-miterlimit:10;stroke-dasharray:2.991,2.991;}
	.st11{fill:none;stroke:#000000;stroke-miterlimit:10;stroke-dasharray:2.9917,2.9917;}
	.st12{fill:url(#SVGID_1_);}
	.st13{fill:url(#SVGID_00000091717718055543944510000017153638870017886863_);}
	.st14{fill:#FFFFFF;}
</style>
<g class="st0">
	<polygon class="st3" points="307.3,326.97 276.83,326.97 276.83,357.44 307.3,357.44 337.76,357.44 337.76,326.97 	"/>
	<polygon class="st3" points="123.32,357.44 215.86,357.44 215.86,479.34 246.34,479.34 246.34,326.97 123.32,326.97 	"/>
	<path class="st3" d="M-2.93,418.39l-0.58-0.76c2.71,0.5,5.5,0.76,8.35,0.76c19.91,0,36.83-12.72,43.1-30.47
		c1.69-4.76,2.61-9.89,2.61-15.24c0-5.34-0.92-10.47-2.61-15.24c-6.27-17.75-23.19-30.47-43.1-30.47h-147.95v30.47H4.84
		c8.42,0,15.24,6.83,15.24,15.24c0,8.42-6.82,15.24-15.24,15.24h-147.95v91.42h30.48v-60.95h71.28l23.42,30.48l23.41,30.47h59.81
		v-30.47h-44.8L-2.93,418.39z"/>
</g>
<g class="st0">
	<polygon class="st3" points="337.76,719.53 337.76,750 246.34,750 246.34,871.9 215.86,871.9 215.86,750 123.32,750 123.32,719.53 
			"/>
	<path class="st3" d="M47.94,750c1.69,4.77,2.61,9.9,2.61,15.24c0,5.35-0.92,10.48-2.61,15.24c-6.27,17.75-23.19,30.47-43.1,30.47
		c-2.85,0-5.64-0.26-8.35-0.76l0.58,0.76L43.9,871.9H5.48l-23.41-30.47l-23.42-30.48h-71.28v60.95h-30.48v-91.42H4.84
		c8.42,0,15.24-6.82,15.24-15.24c0-8.41-6.82-15.24-15.24-15.24h-147.95v-30.47H4.84C24.75,719.53,41.67,732.25,47.94,750z"/>
</g>
<g class="st0">
	<path class="st3" d="M333.76,1520.66L333.76,1520.66l-91.42,0v121.9h-30.48v-121.9h-62.07c-16.83,0-30.47-13.64-30.47-30.47l0,0
		h183.97C320.12,1490.19,333.76,1503.84,333.76,1520.66z"/>
	<path class="st3" d="M8.84,1581.61c-2.85,0-5.64-0.26-8.35-0.76l0.58,0.76l46.83,60.95H9.48l-23.41-30.47l-23.42-30.48h-79.28
		v-30.47H8.41c8.2,0,15.26-6.3,15.65-14.49c0.42-8.75-6.55-15.99-15.22-15.99h-117.48c-16.83,0-30.47-13.64-30.47-30.47l0,0H8.84
		c19.91,0,36.83,12.72,43.1,30.47c1.69,4.77,2.61,9.9,2.61,15.24c0,5.35-0.92,10.48-2.61,15.24
		C45.67,1568.89,28.75,1581.61,8.84,1581.61z"/>
</g>
<g class="st0">
	<path class="st3" d="M332.85,1136.76L332.85,1136.76h-91.42v121.9h-30.48v-121.9h-92.54l0,0c0-16.83,13.64-30.47,30.47-30.47h153.5
		C319.21,1106.29,332.85,1119.93,332.85,1136.76z"/>
	<path class="st3" d="M43.03,1136.76c1.69,4.77,2.61,9.9,2.61,15.24c0,5.35-0.92,10.48-2.61,15.24
		c-6.27,17.75-23.19,30.47-43.1,30.47c-2.85,0-5.64-0.26-8.35-0.76l0.58,0.76l46.83,60.95H0.57l-23.41-30.47l-23.42-30.48h-71.28
		v60.95h-30.48v-91.42l147.52,0c8.2,0,15.26-6.3,15.65-14.49c0.42-8.75-6.55-15.99-15.22-15.99h-147.95l0,0
		c0-16.83,13.64-30.47,30.47-30.47H-0.07C19.84,1106.29,36.76,1119.01,43.03,1136.76z"/>
</g>
<radialGradient id="SVGID_1_" cx="985.7822" cy="-29.8889" r="1102.2451" gradientUnits="userSpaceOnUse">
	<stop  offset="0" style="stop-color:#414042"/>
	<stop  offset="1" style="stop-color:#000000"/>
</radialGradient>
<rect y="0" class="st12" width="2000" height="2000"/>
<g>
	<path class="st14" d="M1635.56,943.31L1635.56,943.31h-87.25v116.34h-29.09V943.31h-88.32l0,0c0-16.06,13.02-29.08,29.08-29.08
		h146.5C1622.54,914.23,1635.56,927.25,1635.56,943.31z"/>
	<path class="st14" d="M643.98,943.31c-1.61,4.55-2.49,9.45-2.49,14.54c0,5.11,0.88,10,2.49,14.54
		c5.98,16.94,22.13,29.08,41.13,29.08h100.82c7.83,0,14.56,6.01,14.94,13.83c0.4,8.35-6.25,15.26-14.52,15.26H641.49l0,0
		c0,16.06,13.02,29.08,29.08,29.08h115.78c18.99,0,35.15-12.14,41.13-29.08c1.61-4.55,2.49-9.45,2.49-14.54s-0.88-9.99-2.49-14.54
		c-5.98-16.94-22.14-29.08-41.13-29.08H685.53c-7.83,0-14.56-6.01-14.94-13.82c-0.4-8.35,6.25-15.26,14.53-15.26h144.86l0,0
		c0-16.06-13.02-29.08-29.08-29.08H685.11C666.11,914.23,649.96,926.37,643.98,943.31z"/>
	<path class="st14" d="M574.76,986.95c0,4.98-0.5,9.84-1.46,14.54c-2.18,10.75-6.72,20.63-13.07,29.09
		c-6.74,8.98-15.51,16.34-25.63,21.41c-2.07,1.04-4.59,0.42-5.99-1.42l-12.86-16.79c-1.59-2.07-0.73-5.09,1.71-6.01
		c11.99-4.52,21.47-14.18,25.74-26.29c1.61-4.55,2.48-9.44,2.48-14.54c0-5.11-0.88-10-2.48-14.54
		c-5.99-16.95-22.14-29.09-41.14-29.09h-65.91l0.01,0.01c-10.13,0.23-19.38,3.9-26.67,9.9c-6.09,4.99-10.79,11.61-13.47,19.18
		c-0.95,2.67-1.64,5.47-2.05,8.36c-0.29,2.02-0.44,4.08-0.44,6.18c0,5.1,0.88,9.98,2.48,14.54c1.36,3.85,3.26,7.47,5.6,10.76
		c8.32,11.69,22.04,18.32,36.39,18.32h21.33c4.23,0,8.22,1.98,10.78,5.35l13.03,17.17c3.61,4.76,9.24,7.55,15.21,7.55h21.13
		c2.89,0,5.62,1.34,7.39,3.63l12.61,16.31c1.63,2.11,0.13,5.18-2.54,5.18h-29.75c-2.3,0-4.46-1.08-5.84-2.91l-9.84-13.03
		c-4.83-6.41-12.39-10.17-20.42-10.17h-33.94c-23.79,0-44.9-11.42-58.17-29.08c-6.35-8.46-10.9-18.34-13.07-29.09
		c-0.96-4.7-1.46-9.55-1.46-14.54c0-4.98,0.5-9.84,1.46-14.54c1.37-6.8,3.71-13.27,6.85-19.24c1.81-3.45,3.9-6.75,6.23-9.85
		c3.68-4.91,7.97-9.33,12.76-13.16c12.44-9.96,28.22-15.92,45.4-15.92h64.91c23.78,0,44.9,11.42,58.16,29.08
		c6.37,8.46,10.91,18.34,13.08,29.09C574.26,977.11,574.76,981.97,574.76,986.95z"/>
	<path class="st14" d="M1085.92,943.31c-13.26-17.66-34.38-29.08-58.16-29.08h-64.91c-23.78,0-44.9,11.42-58.16,29.08
		c-6.36,8.46-10.91,18.34-13.08,29.09c-0.96,4.71-1.46,9.56-1.46,14.54c0,4.98,0.5,9.84,1.46,14.54
		c2.18,10.75,6.73,20.63,13.08,29.09c13.27,17.66,34.38,29.08,58.17,29.08h64.91c23.79,0,44.9-11.42,58.17-29.08
		c6.36-8.46,10.9-18.34,13.07-29.09c0.96-4.7,1.46-9.55,1.46-14.54c0-4.98-0.5-9.84-1.46-14.54
		C1096.83,961.66,1092.29,951.77,1085.92,943.31z M1068.91,1001.48c-5.98,16.94-22.14,29.09-41.14,29.09h-64.91
		c-19,0-35.16-12.15-41.14-29.09c-1.6-4.55-2.48-9.44-2.48-14.54c0-5.11,0.88-10,2.49-14.54c5.98-16.95,22.13-29.09,41.13-29.09
		h64.91c19,0,35.15,12.14,41.14,29.09c1.6,4.54,2.48,9.44,2.48,14.54C1071.39,992.04,1070.52,996.93,1068.91,1001.48z"/>
	<path class="st14" d="M1358.96,943.31c1.61,4.55,2.49,9.45,2.49,14.54c0,5.11-0.88,10-2.49,14.54
		c-5.98,16.94-22.13,29.08-41.13,29.08c-2.72,0-5.38-0.25-7.97-0.73l0.55,0.73l44.69,58.17h-36.67l-22.34-29.08l-22.35-29.09h-68.03
		v58.17h-29.09V972.4h140.79c7.83,0,14.56-6.01,14.94-13.82c0.4-8.35-6.25-15.26-14.53-15.26h-141.2l0,0
		c0-16.06,13.02-29.08,29.08-29.08h112.12C1336.83,914.23,1352.98,926.37,1358.96,943.31z"/>
</g>
</svg>
